# xmcd
#
# Track frame offsets:
#	150
#	20100
#	43247
#	59297
#	72947
#	87647
#	108797
#	126722
#	139079
#	156714
#	172164
#	195658
#	211108
#
# Disc length: 2977 seconds
#
# Revision: 0
# Processed by: cddbd v1.5.2PL0 Copyright (c) Steve Scherf et al.
# Submitted via: EasyCDDAExtractor 15.3.0.1
#
DISCID=ce0b9f0d
DTITLE=Highlandzack - 2
DYEAR=2005
DGENRE=
TTITLE0=Radfahrer
TTITLE1=I muss amol wieder
TTITLE2=Kiss brennad wie Feuer
TTITLE3=Hass
TTITLE4=Bämull
TTITLE5=Zuviele Dieb, zuviele Hai
TTITLE6=Jetzd will i
TTITLE7=Mary got mol wieder
TTITLE8=Kasch vergessa
TTITLE9=Gemägger
TTITLE10=Glaub´s net
TTITLE11=Mit em Wend
TTITLE12=Wochenendrocker
EXTD=
EXTT0=
EXTT1=
EXTT2=
EXTT3=
EXTT4=
EXTT5=
EXTT6=
EXTT7=
EXTT8=
EXTT9=
EXTT10=
EXTT11=
EXTT12=
PLAYORDER=
